<svg xmlns="http://www.w3.org/2000/svg" viewBox="0 0 100 100" width="100" height="100">
  <rect width="100" height="100" fill="#0b0b0b"/>
  <g transform="rotate(0 50 50)"><path d="M52 16 L78 44 L60 50 Z" fill="#e5b93c"/><path d="M48 8 L70 30 L54 56 Z" fill="#ffffff"/></g>
  <g transform="rotate(72 50 50)"><path d="M52 16 L78 44 L60 50 Z" fill="#e5b93c"/><path d="M48 8 L70 30 L54 56 Z" fill="#ffffff"/></g>
  <g transform="rotate(144 50 50)"><path d="M52 16 L78 44 L60 50 Z" fill="#e5b93c"/><path d="M48 8 L70 30 L54 56 Z" fill="#ffffff"/></g>
  <g transform="rotate(216 50 50)"><path d="M52 16 L78 44 L60 50 Z" fill="#e5b93c"/><path d="M48 8 L70 30 L54 56 Z" fill="#ffffff"/></g>
  <g transform="rotate(288 50 50)"><path d="M52 16 L78 44 L60 50 Z" fill="#e5b93c"/><path d="M48 8 L70 30 L54 56 Z" fill="#ffffff"/></g>
</svg>
